<?xml version="1.0" encoding="UTF-8"?>
<!DOCTYPE svg PUBLIC "-//W3C//DTD SVG 1.1//EN" "http://www.w3.org/Graphics/SVG/1.1/DTD/svg11.dtd">
<svg xmlns="http://www.w3.org/2000/svg" version="1.1" width="51px" height="51px" style="shape-rendering:geometricPrecision; text-rendering:geometricPrecision; image-rendering:optimizeQuality; fill-rule:evenodd; clip-rule:evenodd" xmlns:xlink="http://www.w3.org/1999/xlink">
<g><path style="opacity:0.961" fill="#040404" d="M 22.5,-0.5 C 23.1667,-0.5 23.8333,-0.5 24.5,-0.5C 27.2093,4.28063 31.376,6.9473 37,7.5C 39.3806,6.565 41.8806,6.23166 44.5,6.5C 44.7595,15.031 44.4262,23.531 43.5,32C 48.215,39.2415 47.215,45.4081 40.5,50.5C 38.1667,50.5 35.8333,50.5 33.5,50.5C 31.017,46.8863 28.3503,46.8863 25.5,50.5C 24.5,50.5 23.5,50.5 22.5,50.5C 13.8279,46.6606 7.66128,40.3273 4,31.5C 3.25335,28.0764 3.42002,24.7431 4.5,21.5C 4.86038,34.7252 11.3604,43.7252 24,48.5C 25.586,47.624 27.086,46.624 28.5,45.5C 20.2398,44.8097 13.7398,40.8097 9,33.5C 7.65199,26.2392 7.15199,18.9059 7.5,11.5C 13.583,11.6064 19.083,9.93972 24,6.5C 28.5087,10.0879 33.6753,11.7545 39.5,11.5C 39.1697,18.5316 39.503,25.5316 40.5,32.5C 41.2811,31.2713 41.7811,29.938 42,28.5C 42.4996,21.8417 42.6663,15.175 42.5,8.5C 35.4687,10.06 29.302,8.39331 24,3.5C 18.698,8.39331 12.5313,10.06 5.5,8.5C 5.79472,10.7354 5.46138,12.7354 4.5,14.5C 3.52693,12.0521 3.1936,9.38544 3.5,6.5C 9.60432,7.7323 15.4377,6.7323 21,3.5C 21.7914,2.25501 22.2914,0.921673 22.5,-0.5 Z"/></g>
<g><path style="opacity:1" fill="#caebcc" d="M 4.5,21.5 C 4.5,20.8333 4.5,20.1667 4.5,19.5C 5.83333,18.8333 5.83333,18.1667 4.5,17.5C 4.5,16.5 4.5,15.5 4.5,14.5C 5.46138,12.7354 5.79472,10.7354 5.5,8.5C 12.5313,10.06 18.698,8.39331 24,3.5C 29.302,8.39331 35.4687,10.06 42.5,8.5C 42.6663,15.175 42.4996,21.8417 42,28.5C 41.7811,29.938 41.2811,31.2713 40.5,32.5C 39.503,25.5316 39.1697,18.5316 39.5,11.5C 33.6753,11.7545 28.5087,10.0879 24,6.5C 19.083,9.93972 13.583,11.6064 7.5,11.5C 7.15199,18.9059 7.65199,26.2392 9,33.5C 13.7398,40.8097 20.2398,44.8097 28.5,45.5C 27.086,46.624 25.586,47.624 24,48.5C 11.3604,43.7252 4.86038,34.7252 4.5,21.5 Z"/></g>
<g><path style="opacity:1" fill="#9fe3a4" d="M 22.5,9.5 C 27.2323,11.6007 32.2323,12.9341 37.5,13.5C 37.5,19.5 37.5,25.5 37.5,31.5C 35.8561,31.7135 34.3561,31.3802 33,30.5C 32.028,28.6951 30.8613,27.0284 29.5,25.5C 31.8768,19.5861 30.0435,15.9195 24,14.5C 17.3547,16.1196 15.5214,19.9529 18.5,26C 15.3663,28.3876 13.533,31.5543 13,35.5C 11.4728,33.779 10.4728,31.779 10,29.5C 9.50065,24.1771 9.33398,18.8437 9.5,13.5C 14.3599,13.5404 18.6932,12.2071 22.5,9.5 Z"/></g>
<g><path style="opacity:1" fill="#f2c3ad" d="M 21.5,16.5 C 28.6317,16.7891 30.2983,19.9558 26.5,26C 22.2996,27.3097 19.6329,25.8097 18.5,21.5C 19.2599,19.6396 20.2599,17.973 21.5,16.5 Z"/></g>
<g><path style="opacity:0.976" fill="#000000" d="M 4.5,17.5 C 5.83333,18.1667 5.83333,18.8333 4.5,19.5C 3.16667,18.8333 3.16667,18.1667 4.5,17.5 Z"/></g>
<g><path style="opacity:1" fill="#fecc68" d="M 19.5,27.5 C 22.1735,28.7026 24.8401,28.7026 27.5,27.5C 30.2505,28.7158 31.4172,30.7158 31,33.5C 28.6569,36.405 26.8236,39.5717 25.5,43C 14.6842,41.295 12.6842,36.1283 19.5,27.5 Z"/></g>
<g><path style="opacity:1" fill="#7eb4fc" d="M 34.5,33.5 C 41.657,33.155 44.8237,36.4884 44,43.5C 39.8292,49.729 35.1626,50.0623 30,44.5C 28.3926,39.4383 29.8926,35.7716 34.5,33.5 Z"/></g>
<g><path style="opacity:1" fill="#000001" d="M 39.5,37.5 C 41.6456,37.6964 41.8122,38.6964 40,40.5C 38.5784,42.6381 36.745,43.8047 34.5,44C 33.6433,43.3109 32.9767,42.4776 32.5,41.5C 35.6486,42.0836 37.9819,40.7502 39.5,37.5 Z"/></g>
</svg>
